<svg width="1547" height="387" viewBox="0 0 1547 387" fill="none" xmlns="http://www.w3.org/2000/svg">
<path d="M357.724 375.837L225.276 0H134.147L0 375.837H83.2051H161.756L183.878 286.083H138.189H77.6923L219.535 40.407L173.846 225.788H219.535H280.032L193.401 375.837H272.256H357.724Z" fill="url(#paint0_linear_20_1836)"/>
<path fill-rule="evenodd" clip-rule="evenodd" d="M185.541 124.872L99.8522 273.292H200.205L172.182 387L257.871 238.58H157.519L185.541 124.872Z" fill="#FEA62A"/>
<path d="M472.038 276.5H439.788L498.506 109.712H535.805L594.604 276.5H562.354L517.807 143.917H516.504L472.038 276.5ZM473.097 211.104H561.051V235.373H473.097V211.104ZM609.536 276.5V151.409H637.714V172.665H639.18C641.786 165.498 646.103 159.906 652.129 155.888C658.156 151.816 665.35 149.78 673.711 149.78C682.18 149.78 689.32 151.843 695.129 155.97C700.993 160.042 705.119 165.607 707.508 172.665H708.811C711.58 165.715 716.249 160.177 722.819 156.051C729.442 151.871 737.288 149.78 746.355 149.78C757.865 149.78 767.257 153.418 774.533 160.693C781.808 167.968 785.445 178.583 785.445 192.536V276.5H755.883V197.097C755.883 189.333 753.82 183.659 749.694 180.076C745.567 176.438 740.518 174.619 734.546 174.619C727.433 174.619 721.868 176.845 717.851 181.297C713.887 185.695 711.906 191.423 711.906 198.481V276.5H682.995V195.875C682.995 189.414 681.04 184.256 677.131 180.402C673.276 176.547 668.227 174.619 661.983 174.619C657.749 174.619 653.894 175.705 650.419 177.877C646.944 179.994 644.175 183.008 642.112 186.917C640.049 190.771 639.017 195.278 639.017 200.436V276.5H609.536ZM809.621 323.409V151.409H838.613V172.095H840.323C841.844 169.054 843.988 165.824 846.757 162.403C849.526 158.929 853.272 155.97 857.996 153.527C862.719 151.029 868.746 149.78 876.075 149.78C885.739 149.78 894.453 152.251 902.217 157.191C910.036 162.078 916.225 169.326 920.786 178.936C925.4 188.491 927.708 200.218 927.708 214.117C927.708 227.854 925.455 239.527 920.948 249.136C916.442 258.746 910.307 266.076 902.543 271.125C894.779 276.174 885.984 278.699 876.157 278.699C868.99 278.699 863.045 277.504 858.322 275.116C853.598 272.727 849.798 269.849 846.92 266.483C844.097 263.062 841.898 259.832 840.323 256.792H839.102V323.409H809.621ZM838.532 213.955C838.532 222.044 839.672 229.129 841.952 235.21C844.287 241.291 847.626 246.042 851.969 249.462C856.367 252.828 861.688 254.511 867.931 254.511C874.447 254.511 879.903 252.774 884.301 249.299C888.698 245.77 892.01 240.965 894.236 234.884C896.517 228.749 897.657 221.773 897.657 213.955C897.657 206.191 896.544 199.295 894.318 193.269C892.092 187.242 888.78 182.519 884.382 179.098C879.984 175.678 874.501 173.968 867.931 173.968C861.633 173.968 856.286 175.624 851.888 178.936C847.49 182.247 844.151 186.89 841.871 192.862C839.645 198.834 838.532 205.865 838.532 213.955ZM1002.6 278.943C990.058 278.943 979.226 276.337 970.105 271.125C961.038 265.859 954.062 258.42 949.175 248.811C944.289 239.146 941.846 227.772 941.846 214.688C941.846 201.82 944.289 190.527 949.175 180.809C954.116 171.036 961.011 163.435 969.861 158.006C978.711 152.522 989.108 149.78 1001.05 149.78C1008.76 149.78 1016.04 151.029 1022.88 153.527C1029.77 155.97 1035.85 159.77 1041.12 164.928C1046.44 170.086 1050.62 176.655 1053.66 184.636C1056.7 192.563 1058.22 202.01 1058.22 212.977V222.017H955.69V202.146H1029.96C1029.91 196.499 1028.69 191.477 1026.3 187.08C1023.91 182.628 1020.57 179.126 1016.28 176.574C1012.05 174.022 1007.11 172.746 1001.46 172.746C995.433 172.746 990.139 174.212 985.579 177.144C981.018 180.021 977.462 183.822 974.91 188.545C972.413 193.215 971.137 198.345 971.082 203.938V221.284C971.082 228.559 972.413 234.803 975.073 240.015C977.733 245.173 981.452 249.136 986.23 251.905C991.008 254.62 996.6 255.977 1003.01 255.977C1007.3 255.977 1011.18 255.38 1014.65 254.186C1018.13 252.937 1021.14 251.118 1023.69 248.729C1026.24 246.34 1028.17 243.381 1029.47 239.852L1057 242.947C1055.26 250.222 1051.95 256.574 1047.07 262.004C1042.23 267.379 1036.04 271.559 1028.5 274.545C1020.95 277.477 1012.32 278.943 1002.6 278.943ZM1077.43 276.5V151.409H1106.02V172.258H1107.32C1109.6 165.037 1113.51 159.472 1119.05 155.563C1124.64 151.599 1131.02 149.617 1138.18 149.617C1139.81 149.617 1141.63 149.699 1143.64 149.862C1145.7 149.97 1147.41 150.16 1148.77 150.432V177.551C1147.52 177.117 1145.54 176.737 1142.83 176.411C1140.17 176.031 1137.59 175.841 1135.09 175.841C1129.71 175.841 1124.88 177.008 1120.59 179.343C1116.36 181.623 1113.02 184.799 1110.58 188.871C1108.13 192.943 1106.91 197.64 1106.91 202.96V276.5H1077.43ZM1196.38 279.025C1188.45 279.025 1181.31 277.613 1174.96 274.79C1168.66 271.912 1163.67 267.677 1159.98 262.085C1156.34 256.493 1154.52 249.598 1154.52 241.4C1154.52 234.342 1155.82 228.505 1158.43 223.89C1161.04 219.275 1164.59 215.583 1169.1 212.814C1173.6 210.045 1178.68 207.955 1184.33 206.544C1190.03 205.078 1195.92 204.019 1202 203.367C1209.33 202.607 1215.27 201.929 1219.84 201.331C1224.4 200.68 1227.71 199.703 1229.77 198.4C1231.89 197.042 1232.95 194.952 1232.95 192.129V191.64C1232.95 185.505 1231.13 180.754 1227.49 177.388C1223.85 174.022 1218.61 172.339 1211.77 172.339C1204.55 172.339 1198.82 173.914 1194.59 177.063C1190.41 180.211 1187.59 183.931 1186.12 188.22L1158.59 184.311C1160.76 176.71 1164.35 170.357 1169.34 165.254C1174.34 160.096 1180.45 156.241 1187.67 153.689C1194.89 151.083 1202.87 149.78 1211.61 149.78C1217.64 149.78 1223.64 150.486 1229.61 151.898C1235.58 153.309 1241.04 155.644 1245.98 158.902C1250.92 162.105 1254.88 166.475 1257.87 172.013C1260.91 177.551 1262.43 184.473 1262.43 192.78V276.5H1234.09V259.316H1233.11C1231.32 262.791 1228.79 266.049 1225.54 269.089C1222.33 272.075 1218.29 274.491 1213.4 276.337C1208.57 278.129 1202.9 279.025 1196.38 279.025ZM1204.04 257.362C1209.95 257.362 1215.08 256.194 1219.43 253.86C1223.77 251.471 1227.11 248.322 1229.44 244.413C1231.83 240.504 1233.03 236.242 1233.03 231.627V216.886C1232.11 217.646 1230.53 218.352 1228.3 219.004C1226.13 219.655 1223.69 220.225 1220.98 220.714C1218.26 221.203 1215.57 221.637 1212.91 222.017C1210.25 222.397 1207.94 222.723 1205.99 222.994C1201.59 223.592 1197.66 224.569 1194.18 225.926C1190.71 227.283 1187.97 229.184 1185.96 231.627C1183.95 234.016 1182.94 237.11 1182.94 240.911C1182.94 246.34 1184.92 250.439 1188.89 253.208C1192.85 255.977 1197.9 257.362 1204.04 257.362ZM1360.21 276.5H1327.96L1386.68 109.712H1423.98L1482.78 276.5H1450.53L1405.98 143.917H1404.68L1360.21 276.5ZM1361.27 211.104H1449.23V235.373H1361.27V211.104ZM1529.23 109.712V276.5H1499.01V109.712H1529.23Z" fill="#004AC6"/>
<defs>
<linearGradient id="paint0_linear_20_1836" x1="127.282" y1="437.792" x2="127.282" y2="16.5609" gradientUnits="userSpaceOnUse">
<stop stop-color="#3D3D78"/>
<stop offset="1" stop-color="#336699"/>
</linearGradient>
</defs>
</svg>
